<svg width="450" height="450" viewBox="0 0 450 450" fill="none"
  xmlns="http://www.w3.org/2000/svg">
  <rect width="450" height="450" fill="white"/>
  <path fill-rule="evenodd" clip-rule="evenodd" d="M122.395 261.846C148.319 209.731 162.963 180.268 163.499 179.149C163.672 178.786 163.914 178.554 164.035 178.633C164.156 178.712 169.731 189.297 176.423 202.157C183.116 215.017 188.647 225.573 188.715 225.616C188.783 225.659 195.506 212.983 203.655 197.447C211.804 181.911 218.563 169.173 218.674 169.14C218.786 169.107 225.428 177.865 233.435 188.601C241.441 199.338 248.8 209.195 249.788 210.505L251.583 212.886L254.043 211.071C255.396 210.073 264.774 203.077 274.883 195.524C332.022 152.836 351.895 138.04 351.999 138.111C352.062 138.155 346.448 145.354 339.523 154.109C332.597 162.865 324.878 172.624 322.369 175.796C319.86 178.968 316.1 183.718 314.013 186.352C311.927 188.986 295.849 209.287 278.284 231.467C260.72 253.646 246.215 271.818 246.051 271.849C245.886 271.88 243.584 268.977 240.934 265.399C233.37 255.182 219.712 236.977 219.523 236.859C219.429 236.799 210.908 247.772 200.588 261.242C190.268 274.712 181.724 285.755 181.602 285.781C181.48 285.808 175.646 276.351 168.639 264.767C161.632 253.183 155.864 243.67 155.821 243.628C155.777 243.586 151.895 248.115 147.192 253.693C142.489 259.271 131.408 272.369 122.567 282.801C113.726 293.233 104.495 304.148 102.053 307.057C99.6116 309.966 97.6009 312.219 97.5843 312.064C97.568 311.909 108.733 289.311 122.395 261.846ZM102.79 281.793C105.42 275.403 104.694 276.881 118.152 250.521C123.767 239.524 131.266 224.82 134.818 217.845C141.59 204.548 146.55 195.425 150.541 188.927C153.2 184.598 153.547 184.184 154.404 184.309C155.173 184.422 155.123 184.582 152.296 191.076C149.158 198.288 145.293 206.025 138.328 219.04C131.842 231.16 121.898 250.392 113.634 266.799C104.518 284.9 102.021 288.936 100.743 287.637C100.604 287.496 101.526 284.866 102.79 281.793ZM118.319 280.817C119.762 279.158 124.247 273.849 129.315 267.802C143.988 250.295 156.356 235.724 156.471 235.81C156.561 235.876 174.522 265.491 181.803 277.577C182.014 277.928 187.555 270.811 212.337 238.351C216.065 233.468 219.262 229.442 219.442 229.403C219.622 229.364 225.672 237.224 232.885 246.87C240.099 256.517 246.073 264.461 246.161 264.525C246.249 264.59 246.908 263.845 247.625 262.87C248.342 261.896 257.578 250.191 268.151 236.861C278.723 223.53 293.056 205.456 300.003 196.696C306.949 187.936 315.474 177.2 318.947 172.838C322.419 168.476 325.805 164.165 326.471 163.258C327.585 161.741 327.601 161.671 326.672 162.375C321.283 166.468 251.044 218.827 250.81 218.927C250.559 219.033 224.837 184.966 220.543 178.84L219.394 177.202L205.792 203.09C198.311 217.328 191.466 230.383 190.581 232.099C189.696 233.816 188.865 235.243 188.733 235.271C188.516 235.316 166.014 192.294 164.868 189.642C164.598 189.017 164.242 188.534 164.076 188.57C163.911 188.606 159.111 198.035 153.409 209.525C147.708 221.014 137.386 241.794 130.472 255.702C123.557 269.61 117.906 281.052 117.914 281.129C117.921 281.205 118.104 281.065 118.319 280.817ZM196.706 197.588C198.107 194.296 199.823 191.159 204.058 184.141C206.321 180.39 208.516 176.688 208.936 175.914C209.67 174.558 211.037 173.768 211.216 174.596C211.322 175.088 208.116 181.893 205.345 187.061C202.96 191.507 198.901 197.814 197.592 199.108C196.212 200.471 195.788 199.745 196.706 197.588ZM270.189 192.095C273.748 188.604 299.001 170.631 308.061 165.141C312.793 162.275 318.727 159.364 319.09 159.733C319.263 159.909 319.285 160.205 319.139 160.391C318.525 161.178 312.873 164.993 304.487 170.282C295.693 175.829 284.051 183.923 277.754 188.869C272.105 193.307 268.581 195.36 268.361 194.342C268.316 194.136 269.139 193.125 270.189 192.095Z" fill="black"/>
  <path fill-rule="evenodd" clip-rule="evenodd" d="M122.395 263.846C148.319 211.731 162.963 182.268 163.499 181.149C163.672 180.786 163.914 180.554 164.035 180.633C164.156 180.712 169.731 191.297 176.423 204.157C183.116 217.017 188.647 227.573 188.715 227.616C188.783 227.659 195.506 214.983 203.655 199.447C211.804 183.911 218.563 171.173 218.674 171.14C218.786 171.107 225.428 179.865 233.435 190.601C241.441 201.338 248.8 211.195 249.788 212.505L251.583 214.886L254.043 213.071C255.396 212.073 264.774 205.077 274.883 197.524C332.022 154.836 351.895 140.04 351.999 140.111C352.062 140.155 346.448 147.354 339.523 156.109C332.597 164.865 324.878 174.624 322.369 177.796C319.86 180.968 316.1 185.718 314.013 188.352C311.927 190.986 295.849 211.287 278.284 233.467C260.72 255.646 246.215 273.818 246.051 273.849C245.886 273.88 243.584 270.977 240.934 267.399C233.37 257.182 219.712 238.977 219.523 238.859C219.429 238.799 210.908 249.772 200.588 263.242C190.268 276.712 181.724 287.755 181.602 287.781C181.48 287.808 175.646 278.351 168.639 266.767C161.632 255.183 155.864 245.67 155.821 245.628C155.777 245.586 151.895 250.115 147.192 255.693C142.489 261.271 131.408 274.369 122.567 284.801C113.726 295.233 104.495 306.148 102.053 309.057C99.6116 311.966 97.6009 314.219 97.5843 314.064C97.568 313.909 108.733 291.311 122.395 263.846ZM102.79 283.793C105.42 277.403 104.694 278.881 118.152 252.521C123.767 241.524 131.266 226.82 134.818 219.845C141.59 206.548 146.55 197.425 150.541 190.927C153.2 186.598 153.547 186.184 154.404 186.309C155.173 186.422 155.123 186.582 152.296 193.076C149.158 200.288 145.293 208.025 138.328 221.04C131.842 233.16 121.898 252.392 113.634 268.799C104.518 286.9 102.021 290.936 100.743 289.637C100.604 289.496 101.526 286.866 102.79 283.793ZM118.319 282.817C119.762 281.158 124.247 275.849 129.315 269.802C143.988 252.295 156.356 237.724 156.471 237.81C156.561 237.876 174.522 267.491 181.803 279.577C182.014 279.928 187.555 272.811 212.337 240.351C216.065 235.468 219.262 231.442 219.442 231.403C219.622 231.364 225.672 239.224 232.885 248.87C240.099 258.517 246.073 266.461 246.161 266.525C246.249 266.59 246.908 265.845 247.625 264.87C248.342 263.896 257.578 252.191 268.151 238.861C278.723 225.53 293.056 207.456 300.003 198.696C306.949 189.936 315.474 179.2 318.947 174.838C322.419 170.476 325.805 166.165 326.471 165.258C327.585 163.741 327.601 163.671 326.672 164.375C321.283 168.468 251.044 220.827 250.81 220.927C250.559 221.033 224.837 186.966 220.543 180.84L219.394 179.202L205.792 205.09C198.311 219.328 191.466 232.383 190.581 234.099C189.696 235.816 188.865 237.243 188.733 237.271C188.516 237.316 166.014 194.294 164.868 191.642C164.598 191.017 164.242 190.534 164.076 190.57C163.911 190.606 159.111 200.035 153.409 211.525C147.708 223.014 137.386 243.794 130.472 257.702C123.557 271.61 117.906 283.052 117.914 283.129C117.921 283.205 118.104 283.065 118.319 282.817ZM196.706 199.588C198.107 196.296 199.823 193.159 204.058 186.141C206.321 182.39 208.516 178.688 208.936 177.914C209.67 176.558 211.037 175.768 211.216 176.596C211.322 177.088 208.116 183.893 205.345 189.061C202.96 193.507 198.901 199.814 197.592 201.108C196.212 202.471 195.788 201.745 196.706 199.588ZM270.189 194.095C273.748 190.604 299.001 172.631 308.061 167.141C312.793 164.275 318.727 161.364 319.09 161.733C319.263 161.909 319.285 162.205 319.139 162.391C318.525 163.178 312.873 166.993 304.487 172.282C295.693 177.829 284.051 185.923 277.754 190.869C272.105 195.307 268.581 197.36 268.361 196.342C268.316 196.136 269.139 195.125 270.189 194.095Z" fill="#FFBB0B"/>
</svg>
