<svg width="429" height="297" viewBox="0 0 429 297" fill="none"
  xmlns="http://www.w3.org/2000/svg">
  <path fill-rule="evenodd" clip-rule="evenodd" d="M42.6149 208.252C86.2074 120.618 110.832 71.0754 111.733 69.1928C112.025 68.5836 112.431 68.1929 112.635 68.3257C112.839 68.4579 122.213 86.2579 133.466 107.882C144.72 129.506 154.02 147.257 154.135 147.329C154.25 147.401 165.555 126.086 179.258 99.9624C192.961 73.8387 204.325 52.419 204.513 52.3631C204.7 52.3071 215.869 67.0336 229.333 85.0881C242.796 103.143 255.17 119.717 256.831 121.92L259.85 125.924L263.986 122.872C266.261 121.193 282.031 109.429 299.03 96.7288C395.111 24.9466 428.527 0.0674114 428.702 0.186652C428.809 0.259947 419.369 12.3657 407.723 27.0884C396.078 41.811 383.097 58.2211 378.878 63.5552C374.66 68.8892 368.337 76.8768 364.829 81.3054C361.32 85.7341 334.284 119.872 304.749 157.168C275.214 194.464 250.824 225.021 250.547 225.073C250.271 225.124 246.399 220.243 241.944 214.226C229.223 197.046 206.257 166.434 205.94 166.234C205.782 166.134 191.454 184.585 174.1 207.236C156.747 229.886 142.38 248.455 142.174 248.5C141.969 248.544 132.16 232.643 120.377 213.163C108.595 193.684 98.8947 177.688 98.822 177.617C98.7495 177.547 92.2203 185.162 84.3128 194.542C76.4053 203.921 57.7717 225.946 42.905 243.488C28.0384 261.029 12.5161 279.383 8.41032 284.275C4.30458 289.166 0.923533 292.955 0.89562 292.695C0.868204 292.434 19.6418 254.435 42.6149 208.252ZM9.64921 241.794C14.0711 231.049 12.8501 233.534 35.4812 189.207C44.922 170.715 57.5332 145.99 63.5053 134.262C74.8926 111.902 83.2333 96.5621 89.9449 85.635C94.4156 78.3565 94.9987 77.6592 96.4407 77.8707C97.7333 78.0611 97.6496 78.3294 92.8961 89.2497C87.618 101.376 81.1188 114.387 69.4075 136.271C58.5009 156.652 41.7804 188.99 27.884 216.581C12.5548 247.017 8.35549 253.805 6.20717 251.62C5.97413 251.383 7.52296 246.961 9.64921 241.794ZM35.7625 240.152C38.1882 237.362 45.7298 228.435 54.252 218.267C78.9249 188.828 99.7222 164.327 99.9153 164.471C100.067 164.582 130.269 214.38 142.512 234.704C142.868 235.294 152.185 223.326 193.857 168.744C200.124 160.533 205.5 153.763 205.803 153.697C206.106 153.632 216.279 166.849 228.409 183.069C240.539 199.29 250.584 212.649 250.733 212.757C250.881 212.865 251.988 211.613 253.194 209.974C254.399 208.335 269.931 188.653 287.709 166.237C305.486 143.822 329.588 113.429 341.27 98.6989C352.95 83.9688 367.285 65.9158 373.125 58.5814C378.964 51.2465 384.657 43.9978 385.777 42.4725C387.649 39.922 387.676 39.803 386.115 40.9881C377.053 47.8697 258.944 135.914 258.55 136.081C258.129 136.26 214.875 78.9744 207.655 68.6745L205.723 65.9189L182.85 109.451C170.27 133.394 158.76 155.345 157.272 158.232C155.785 161.118 154.387 163.518 154.166 163.565C153.8 163.641 115.963 91.2976 114.036 86.8382C113.582 85.7862 112.982 84.9752 112.704 85.0353C112.426 85.0953 104.355 100.952 94.7675 120.271C85.1802 139.591 67.824 174.533 56.1975 197.92C44.5704 221.307 35.068 240.547 35.0807 240.676C35.0928 240.805 35.4002 240.569 35.7625 240.152ZM167.572 100.2C169.928 94.6643 172.813 89.3888 179.935 77.5869C183.74 71.2807 187.431 65.0557 188.137 63.753C189.372 61.474 191.67 60.1457 191.971 61.5372C192.149 62.3644 186.759 73.8082 182.098 82.4981C178.088 89.9744 171.263 100.58 169.062 102.755C166.742 105.048 166.029 103.826 167.572 100.2ZM291.137 90.9627C297.121 85.0923 339.585 54.87 354.82 45.6391C362.776 40.8189 372.755 35.9251 373.364 36.5449C373.656 36.8403 373.693 37.3385 373.448 37.6519C372.415 38.9738 362.911 45.3893 348.81 54.2835C334.022 63.6101 314.446 77.222 303.858 85.5384C294.358 93.0003 288.432 96.4523 288.062 94.7406C287.987 94.3952 289.371 92.6952 291.137 90.9627Z" fill="black"/>
  <path fill-rule="evenodd" clip-rule="evenodd" d="M42.6149 211.615C86.2074 123.981 110.832 74.4385 111.733 72.5559C112.025 71.9466 112.431 71.556 112.635 71.6887C112.839 71.821 122.213 89.621 133.466 111.245C144.72 132.869 154.02 150.62 154.135 150.692C154.25 150.764 165.555 129.449 179.258 103.325C192.961 77.2018 204.325 55.7821 204.513 55.7261C204.7 55.6702 215.869 70.3967 229.333 88.4512C242.796 106.506 255.17 123.08 256.831 125.283L259.85 129.287L263.986 126.235C266.261 124.557 282.031 112.792 299.03 100.092C395.111 28.3097 428.527 3.43048 428.702 3.54972C428.809 3.62301 419.369 15.7288 407.723 30.4515C396.078 45.1741 383.097 61.5842 378.878 66.9183C374.66 72.2523 368.337 80.2399 364.829 84.6685C361.32 89.0972 334.284 123.235 304.749 160.531C275.214 197.827 250.824 228.384 250.547 228.436C250.271 228.487 246.399 223.606 241.944 217.589C229.223 200.409 206.257 169.797 205.94 169.597C205.782 169.498 191.454 187.948 174.1 210.599C156.747 233.25 142.38 251.818 142.174 251.863C141.969 251.907 132.16 236.006 120.377 216.526C108.595 197.047 98.8947 181.051 98.822 180.98C98.7495 180.91 92.2203 188.526 84.3128 197.905C76.4053 207.284 57.7717 229.309 42.905 246.851C28.0384 264.392 12.5161 282.746 8.41032 287.638C4.30458 292.529 0.923533 296.318 0.89562 296.058C0.868204 295.797 19.6418 257.798 42.6149 211.615ZM9.64921 245.157C14.0711 234.412 12.8501 236.897 35.4812 192.571C44.922 174.079 57.5332 149.353 63.5053 137.625C74.8926 115.265 83.2333 99.9252 89.9449 88.9981C94.4156 81.7195 94.9987 81.0223 96.4407 81.2338C97.7333 81.4241 97.6496 81.6924 92.8961 92.6127C87.618 104.739 81.1188 117.75 69.4075 139.634C58.5009 160.015 41.7804 192.353 27.884 219.944C12.5548 250.38 8.35549 257.168 6.20717 254.983C5.97413 254.746 7.52296 250.324 9.64921 245.157ZM35.7625 243.515C38.1882 240.725 45.7298 231.798 54.252 221.63C78.9249 192.191 99.7222 167.69 99.9153 167.834C100.067 167.946 130.269 217.743 142.512 238.067C142.868 238.657 152.185 226.689 193.857 172.107C200.124 163.896 205.5 157.126 205.803 157.06C206.106 156.995 216.279 170.212 228.409 186.432C240.539 202.653 250.584 216.012 250.733 216.12C250.881 216.228 251.988 214.976 253.194 213.337C254.399 211.698 269.931 192.016 287.709 169.601C305.486 147.185 329.588 116.792 341.27 102.062C352.95 87.3318 367.285 69.2789 373.125 61.9445C378.964 54.6096 384.657 47.3608 385.777 45.8356C387.649 43.2851 387.676 43.166 386.115 44.3512C377.053 51.2328 258.944 139.277 258.55 139.444C258.129 139.623 214.875 82.3375 207.655 72.0375L205.723 69.282L182.85 112.814C170.27 136.757 158.76 158.708 157.272 161.595C155.785 164.481 154.387 166.881 154.166 166.928C153.8 167.004 115.963 94.6607 114.036 90.2013C113.582 89.1492 112.982 88.3382 112.704 88.3983C112.426 88.4584 104.355 104.315 94.7675 123.634C85.1802 142.954 67.824 177.896 56.1975 201.283C44.5704 224.67 35.068 243.91 35.0807 244.039C35.0928 244.168 35.4002 243.932 35.7625 243.515ZM167.572 103.563C169.928 98.0274 172.813 92.7518 179.935 80.95C183.74 74.6437 187.431 68.4188 188.137 67.116C189.372 64.8371 191.67 63.5088 191.971 64.9002C192.149 65.7275 186.759 77.1713 182.098 85.8612C178.088 93.3375 171.263 103.943 169.062 106.118C166.742 108.411 166.029 107.189 167.572 103.563ZM291.137 94.3258C297.121 88.4554 339.585 58.2331 354.82 49.0021C362.776 44.182 372.755 39.2882 373.364 39.9079C373.656 40.2034 373.693 40.7016 373.448 41.015C372.415 42.3369 362.911 48.7524 348.81 57.6465C334.022 66.9731 314.446 80.585 303.858 88.9015C294.358 96.3634 288.432 99.8154 288.062 98.1037C287.987 97.7583 289.371 96.0583 291.137 94.3258Z" fill="#FFBB0B"/>
</svg>
